<svg xmlns="http://www.w3.org/2000/svg" height="35px" viewBox="0 0 462 462" width="35px" xmlns:v="https://vecta.io/nano" fill="#fff"><path d="M181.5 0h-165C7.38 0 0 7.38 0 16.5v165c0 9.12 7.38 16.5 16.5 16.5h165c9.12 0 16.5-7.38 16.5-16.5v-165C198 7.38 190.62 0 181.5 0zM165 165H33V33h132zm16.5 99h-165C7.38 264 0 271.38 0 280.5v165c0 9.12 7.38 16.5 16.5 16.5h165c9.12 0 16.5-7.38 16.5-16.5v-165c0-9.12-7.38-16.5-16.5-16.5zM165 429H33V297h132zm280.5-165h-165c-9.12 0-16.5 7.38-16.5 16.5v165c0 9.12 7.38 16.5 16.5 16.5h165c9.12 0 16.5-7.38 16.5-16.5v-165c0-9.12-7.38-16.5-16.5-16.5zM429 429H297V297h132z"/><path d="M457.166 143.666c6.445-6.445 6.445-16.887 0-23.332l-115.5-115.5c-6.445-6.445-16.887-6.445-23.332 0l-115.5 115.5C199.61 123.557 198 127.778 198 132s1.61 8.443 4.834 11.666l115.5 115.5C321.557 262.39 325.778 264 330 264s8.443-1.61 11.666-4.834l115.5-115.5zM237.832 132L330 39.832 422.168 132 330 224.168 237.832 132z"/></svg>