<svg xmlns="http://www.w3.org/2000/svg" viewBox="0 0 512.001 512.001" xmlns:v="https://vecta.io/nano" fill="#c5a47e"><path d="M152.733 89.5c14.24-9.5 22.737-27.37 22.737-44.483a50.95 50.95 0 0 0-22.737-42.485c-6.93-4.615-16.232-2.74-20.803 4.16-4.6 6.9-2.725 16.218 4.16 20.803 5.963 3.97 9.376 10.357 9.376 17.522S142.053 60.57 136.1 64.54a50.95 50.95 0 0 0-22.737 42.484 50.95 50.95 0 0 0 22.737 42.485 15.01 15.01 0 0 0 20.803-4.16c4.6-6.9 2.74-16.203-4.16-20.803-5.963-3.97-9.376-10.357-9.376-17.522s3.415-13.552 9.377-17.522zm75.01 0c14.24-9.5 22.738-27.37 22.738-44.483a50.95 50.95 0 0 0-22.737-42.485c-6.944-4.615-16.232-2.74-20.803 4.16-4.6 6.9-2.725 16.218 4.16 20.803 5.963 3.97 9.376 10.357 9.376 17.522S217.062 60.57 211.1 64.54a50.95 50.95 0 0 0-22.737 42.484 50.95 50.95 0 0 0 22.737 42.485 15.01 15.01 0 0 0 20.803-4.16c4.6-6.9 2.74-16.203-4.16-20.803-5.963-3.97-9.376-10.357-9.376-17.522s3.413-13.552 9.376-17.522zm75.008 0c14.24-9.493 22.737-27.374 22.737-44.485A50.95 50.95 0 0 0 302.75 2.531c-6.944-4.615-16.218-2.74-20.803 4.16-4.6 6.9-2.725 16.218 4.16 20.803 5.963 3.97 9.376 10.357 9.376 17.522s-3.413 15.552-9.376 19.522a50.95 50.95 0 0 0-22.737 42.485 50.95 50.95 0 0 0 22.737 42.485c7.02 4.654 16.283 2.63 20.803-4.16 4.6-6.9 2.74-16.203-4.16-20.803-5.963-3.97-9.376-10.357-9.376-17.522s3.414-13.552 9.376-17.522zm175.377 159.177c-13.64-23.265-38.75-37.7-65.515-37.7h-28.92v-15.002a14.99 14.99 0 0 0-15.002-15.002H68.657c-8.292-.001-15.002 6.7-15.002 15v95.153c0 23.953 3.867 48.568 11.515 71.2 8.116 24.103 23.162 44.362 42.275 59.685h222.458c10.718-8.592 19.957-18.886 27.612-30.4 54.945-1.978 97.05-26.995 121.755-71.242 12.497-22.37 12.072-49.167-1.143-71.684zm-25.052 57.06c-17.104 30.6-44.177 49.437-80.394 54.544 7.2-22.013 11-45.913 11-69.165V240.97h28.92c16.408 0 31.234 8.556 39.643 22.9 7.883 13.434 8.176 28.685.82 41.87zm-54.38 146.257H38.653c-8.285 0-15.002 6.717-15.002 15.002C23.65 491.852 43.8 512 68.656 512H368.7c24.856 0 45.005-20.15 45.005-45.005.001-8.285-6.716-15.002-15-15.002z"/></svg>