<svg xmlns="http://www.w3.org/2000/svg" viewBox="0 0 60 60" fill="#fff" xmlns:v="https://vecta.io/nano"><path d="M56 10H20.5l-2.3-7.6C17.656.62 15.786-.385 14.008.14l-5.093 1.5a3.4 3.4 0 0 0-1.477.894L1.7 8.477A3.37 3.37 0 0 0 .84 10.1c-.585 2.7-2.2 12.488 1.63 25.15s10.6 19.976 12.6 21.915a3.39 3.39 0 0 0 1.613.884l8.093 1.867a3.39 3.39 0 0 0 .763.087 3.43 3.43 0 0 0 .964-.139l5.1-1.5a3.34 3.34 0 0 0 2.018-1.629 3.31 3.31 0 0 0 .26-2.545l-1.28-4.2H56a4 4 0 0 0 4-4V14a4 4 0 0 0-4-4zM40.25 29.7l17.627-16.366c.08.213.12.44.123.666v32a1.99 1.99 0 0 1-.111.629zM56 12c.113.002.227.013.338.034L35.4 31.468a2 2 0 0 1-2.72 0l-14.4-13.33 1.06-.313a3.35 3.35 0 0 0 2.015-1.629 3.3 3.3 0 0 0 .257-2.543L21.1 12zM15.734 41.23c-2.065-2.527-3.6-5.444-4.514-8.577a22.55 22.55 0 0 1-.51-12.216c.02-.055.067-.096.123-.1l5.207-1.535L27.785 29.66zm16.1 14.55a1.36 1.36 0 0 1-.82.66l-1.326.4-2.435-8.058a1 1 0 1 0-1.914.579l2.436 8.046-1.846.544a1.4 1.4 0 0 1-.714.022L17.122 56.1a1.4 1.4 0 0 1-.664-.366c-1.9-1.855-8.387-8.858-12.074-21.062s-2.15-21.572-1.6-24.15a1.38 1.38 0 0 1 .35-.658l5.732-5.94a1.39 1.39 0 0 1 .6-.366L11.337 3l2.435 8.057a1 1 0 0 0 .957.711.96.96 0 0 0 .289-.043 1 1 0 0 0 .668-1.246L13.26 2.445l1.314-.387c.726-.22 1.493.188 1.72.9l3.4 11.26c.104.338.068.703-.1 1.014-.174.32-.47.56-.82.66l-1.327.4-.393-1.3a1 1 0 0 0-1.914.578l.4 1.288-5.258 1.55a2.18 2.18 0 0 0-1.487 1.5 24.58 24.58 0 0 0 .525 13.317c1.228 4.37 3.63 8.32 6.948 11.42a2.17 2.17 0 0 0 2.065.45l5.27-1.554.393 1.3a1 1 0 1 0 1.914-.579l-.4-1.288 1.313-.387a1.39 1.39 0 0 1 1.72.91l3.4 11.26c.105.34.068.708-.103 1.02zm.153-7.78l-1.532-5.07c-.545-1.776-2.42-2.78-4.2-2.25l-8.5 2.506a.2.2 0 0 1-.178-.032c-.14-.123-.3-.276-.485-.45l12.164-11.68 2.064 1.9c1.537 1.417 3.905 1.417 5.442 0l2.02-1.876 17.607 16.9c-.128.027-.258.042-.4.043zM26 16h16a1 1 0 1 0 0-2H26a1 1 0 1 0 0 2zm29 6a1 1 0 0 0-1 1v14a1 1 0 1 0 2 0V23a1 1 0 0 0-1-1z"/></svg>