<svg xmlns="http://www.w3.org/2000/svg" viewBox="0 0 179.006 179.006" xmlns:v="https://vecta.io/nano" fill="#c5a47e"><path d="M0 35.124v108.758h179.006V35.124H0zm89.503 94.587c-22.2 0-40.2-18.008-40.2-40.2s17.996-40.205 40.2-40.205 40.193 18.002 40.193 40.205-17.978 40.2-40.193 40.2zm12.715-40.89c-1.933-1.33-5.603-2.75-11.02-4.266v-17.03c3.216.12 5.56 1.35 7.035 3.7.794 1.283 1.27 2.8 1.426 4.583h6.122c-.125-3.956-1.414-7.136-3.896-9.54-2.482-2.4-6.056-3.77-10.687-4.105V57.6h-3.324v4.648c-4.684.048-8.33 1.492-10.93 4.344-2.602 2.846-3.896 6.038-3.896 9.577 0 3.968 1.205 7.07 3.616 9.302 2.4 2.238 6.152 3.837 11.212 4.8v19.064c-3.944-.328-6.64-1.808-8.097-4.44-.83-1.468-1.337-3.8-1.516-6.993h-6.188c0 4 .656 7.184 1.987 9.547 2.43 4.35 7.035 6.76 13.813 7.202v6.8H91.2v-6.8c4.22-.465 7.447-1.414 9.684-2.858 4.04-2.613 6.05-7.023 6.05-13.223.001-4.3-1.568-7.54-4.713-9.73zM87.88 83.897c-2.613-.513-4.684-1.426-6.223-2.727-1.54-1.307-2.3-3.115-2.3-5.424 0-1.9.65-3.74 1.95-5.5 1.313-1.748 3.503-2.68 6.58-2.798v16.44zm11.57 21.224c-1.516 2.727-4.266 4.183-8.252 4.368V91.093c2.906.794 4.988 1.623 6.223 2.518 2.136 1.522 3.222 3.73 3.222 6.647 0 1.838-.4 3.467-1.193 4.863z"/></svg>