<svg xmlns="http://www.w3.org/2000/svg" viewBox="0 0 511.985 511.985" xmlns:v="https://vecta.io/nano"><path d="M508.5 387.75l-24.938-24.963 18.95-18.372c2.588-2.53 4.03-5.93 4.063-9.572s-1.414-7.21-4-9.832l-37.446-37.485a13.58 13.58 0 0 0-19.342.001l-47.416 47.465-22.19-22.23 25.594-25.643c11.984-11.998 11.984-31.52-.001-43.517a30.5 30.5 0 0 0-15.357-8.316c7.728-13.143 5.39-31.033-6.634-43.037-7.036-7.06-16.605-11.114-26.255-11.12h-.023a34.69 34.69 0 0 0-3.873.225c1.184-10.557-2.246-21.535-10.305-29.603-6.806-6.813-15.875-10.563-25.54-10.563h-.023c-1.573.001-3.128.112-4.662.308 1.394-10.754-2.01-22.022-10.23-30.272-14.1-14.08-37.016-14.076-51.085.007l-24.455 24.48c-7.523-1.964-15.514-1.508-22.735 1.28l-22.764-22.787 47.4-47.45c2.6-2.594 4.01-6.047 4-9.722-.01-3.66-1.443-7.088-4-9.62L187.82 9.96c-2.572-2.605-6.013-4.04-9.69-4.04s-7.116 1.435-9.656 4.007l-18.708 18.72L125.114 3.97c-2.24-2.242-5.23-3.477-8.424-3.477s-6.185 1.234-8.424 3.476L87.98 24.276 78 14.27a28.92 28.92 0 0 0-20.608-8.52h-.025c-7.797.006-15.104 3.035-20.56 8.516L15.26 35.807C9.775 41.3 6.753 48.622 6.753 56.427c0 7.8 3.024 15.128 8.508 20.6l10.012 10.022L4.97 107.37c-4.6 4.605-4.62 12.142 0 16.844l24.653 24.678-18.7 18.72c-2.59 2.594-4.012 6.047-4 9.723.01 3.662 1.443 7.09 4 9.62l37.445 37.484a13.58 13.58 0 0 0 9.672 4.009 13.58 13.58 0 0 0 9.671-4.008l47.4-47.44 21.972 21.995c-14.4 20.016-16.645 38.436-8.157 63.62.644 1.597 1.487 5.097-.927 7.206-.65.567-1.3 1.287-2.094 2.072L5.236 392.678c-6.99 7.044-6.98 18.474.018 25.48l82.782 82.867c3.384 3.412 7.903 5.295 12.723 5.303h.033c4.822 0 9.35-1.876 12.757-5.286L238.03 376.4l1.588.255 4.583.7c22.862 3.11 44.55 6.052 66.27-4.816l25.195 25.22-47.43 47.478c-5.32 5.324-5.32 13.987 0 19.313l37.446 37.484a13.82 13.82 0 0 0 9.723 4.029l.158-.001c3.668-.043 7.072-1.52 9.562-4.13l18.247-18.974 24.985 25.035a11.85 11.85 0 0 0 8.438 3.497c3.188 0 6.185-1.242 8.438-3.498l20.268-20.29 9.997 9.988c5.488 5.494 12.804 8.52 20.6 8.52s15.1-3.026 20.6-8.52l21.515-21.537c5.487-5.493 8.51-12.815 8.51-20.62s-3.025-15.128-8.503-20.593l-9.994-10.023 20.28-20.3a11.96 11.96 0 0 0-.003-16.87zM391.165 254.203c6.146 6.152 6.146 16.163-.003 22.317l-30.61 30.668c-.093.084-.19.162-.28.252-.06.06-.11.122-.165.182-6.153 6.028-16.07 6-22.16-.08-6.04-6.066-6.116-15.87-.255-22.048l31.504-31.536c6.166-5.863 15.935-5.792 21.968.246zm-51.83-51.366l1.78-1.783c3.175-3.178 7.576-4.927 12.395-4.927h.013c5.694.003 11.395 2.45 15.652 6.722 8.237 8.225 9.045 20.832 1.808 28.096l-12.118 12.13-.545.517c-.1.1-.186.204-.278.306l-30.423 30.454c-.1.1-.203.175-.3.27-.172.172-.332.352-.5.527l-7.742 7.75c-3.167 3.17-7.563 4.917-12.377 4.917-5.705 0-11.418-2.444-15.675-6.705-8.24-8.25-9.054-20.856-1.814-28.103l10.852-10.863c1.576-1.054 3.004-2.212 4.257-3.467 1.243-1.244 2.283-2.574 3.16-3.96zm-40.45-40.493c3.953-3.967 9.24-6.154 14.9-6.158h.013a20.95 20.95 0 0 1 14.93 6.165c8.22 8.23 8.22 21.64-.006 29.896l-21.338 21.36c-1.028-1.7-2.285-3.327-3.76-4.792l-11.4-11.3-14.254-14.248zM258.4 121.83c8.224-8.233 21.625-8.23 29.86-.006 8.224 8.252 8.224 21.68.01 29.923-.012.012-.013.013-.014.015l-20.898 20.897-27.496-27.548a36.43 36.43 0 0 0-2.481-2.238zM21.753 56.426c0-3.8 1.463-7.36 4.117-10.015l21.556-21.55c2.637-2.65 6.172-4.11 9.955-4.112 3.79.044 7.352 1.46 10.005 4.116l9.993 10.022-41.505 41.547-10-10.02c-2.65-2.645-4.11-6.192-4.11-9.99zM58.04 212.894l-35.575-35.612 65.174-65.24c2.927-2.93 2.925-7.68-.005-10.607s-7.68-2.925-10.607.005l-36.803 36.84-22.465-22.487L116.7 16.76l22.473 22.496-37.643 37.666a7.5 7.5 0 0 0 10.609 10.603l66-66.04 35.562 35.598zm67.663-46.508l41.528-41.57 20.512 20.533c-11.08 10.638-31.58 31.91-41.027 42.072zm-22.767 324.056a3.02 3.02 0 0 1-2.146.887c-.47-.001-1.358-.115-2.124-.887l-82.8-82.886c-1.16-1.16-1.15-3.136-.004-4.29L31.46 387.68l29.532-29.586 87.08 87.168zm55.734-55.792L71.59 347.48l36.227-36.264 87.08 87.17zm87.548-72.157c-1.688-.23-3.042-.453-4.156-.637-8.386-1.385-10.76-.046-16.518 5.827l-1.966 1.992-18.08 18.098-87.08-87.17 18.09-18.11 1.994-1.972c5.86-5.757 7.197-8.13 5.814-16.503l-.974-5.576c-7.888-22.99-5.493-36.96 9.44-55.307 0 0 32.408-34.624 45.95-47.546a22.66 22.66 0 0 1 4.114-3.09c5.915-3.49 16.65-6.46 26.426 3.237l63.772 63.724c1.5 1.5 2.486 3.47 2.49 5.02a3.48 3.48 0 0 1-.195 1.172l-4.714 4.72c-4.22 2.43-10.465 3.907-17.065 3.907h-.026c-8.47-.005-16.125-2.4-19.988-6.286l-18.647-18.64c-4.8-4.805-11-7.393-17.415-7.252-5.945.12-11.772 2.607-15.988 6.826l-21.94 21.963c-2.694 2.697-2.9 6.93-.634 9.87.043.11.237.336.634.732l.007.007c15.778 15.83 18.682 40.195 7.06 59.26a7.5 7.5 0 0 0 2.5 10.308c1.22.743 2.566 1.097 3.897 1.097 2.53 0 4.998-1.28 6.41-3.597 7.187-11.79 10.132-25.123 9.072-38.1l90.65 90.742c-15.083 5.956-30.728 4.307-52.934 1.286zM195.465 236.2l16.645-16.662c1.5-1.503 3.57-2.39 5.676-2.43 2.353-.073 4.6.94 6.507 2.86l18.642 18.632c6.74 6.765 17.847 10.655 30.48 10.685-7.296 13.062-4.84 30.588 7 42.44 7.05 7.057 16.63 11.104 26.286 11.104 4.19 0 8.23-.755 11.96-2.182.886 6.405 3.775 12.584 8.674 17.504 5.993 5.98 13.862 8.97 21.735 8.97 5.5-.001 11-1.466 15.863-4.387l22.836 22.88-41.502 41.545zm292.143 209.36c2.65 2.645 4.11 6.192 4.11 9.988s-1.464 7.36-4.12 10.02l-21.515 21.537c-2.655 2.658-6.202 4.122-9.987 4.122a14.02 14.02 0 0 1-9.992-4.126l-10.002-9.994 41.518-41.56zm-90.8 49.668l-23.024-23.07 30.598-31.816a7.5 7.5 0 0 0-10.812-10.397l-58.222 60.542-35.543-35.58L455.46 299.07l35.56 35.597-71.764 69.57a7.5 7.5 0 0 0 10.441 10.77l43.095-41.778 22.935 22.958z"/></svg>