<svg xmlns="http://www.w3.org/2000/svg" viewBox="0 0 501.333 501.333" fill="#c5a47e" xmlns:v="https://vecta.io/nano"><path d="M64.48 240h108.608c6.048 0 13.58 0 13.58-26.667 0-12.62-24.277-26.667-40.725-26.667h-79.5c-14.4 0-27.733 10.123-28.992 24.203C36 226.677 48.693 240 64.48 240zm426.187 10.667H32v-160A10.67 10.67 0 0 0 21.333 80H10.667A10.67 10.67 0 0 0 0 90.667v320a10.67 10.67 0 0 0 10.667 10.667h10.667a10.67 10.67 0 0 0 10.667-10.667V336h437.333v74.667a10.67 10.67 0 0 0 10.667 10.667h10.667a10.67 10.67 0 0 0 10.667-10.667V261.333a10.67 10.67 0 0 0-10.668-10.666z"/></svg>