<svg xmlns="http://www.w3.org/2000/svg" width="79" height="79" viewBox="0 0 79 79"><defs><clipPath id="hbqna"><path fill="#fff" d="M39.5 0C61.315 0 79 17.685 79 39.5S61.315 79 39.5 79 0 61.315 0 39.5 17.685 0 39.5 0z"/></clipPath></defs><g><g><g><path fill="#fff" d="M39 11c15.464 0 28 12.536 28 28S54.464 67 39 67 11 54.464 11 39s12.536-28 28-28z"/></g><g><path fill="none" stroke="#fff" stroke-miterlimit="20" stroke-width="3" d="M39.5 0C61.315 0 79 17.685 79 39.5S61.315 79 39.5 79 0 61.315 0 39.5 17.685 0 39.5 0z" clip-path="url(&quot;#hbqna&quot;)"/></g><g><g><text dominant-baseline="text-before-edge" style="line-height:26px" fill="#222" font-family="'Material-Design-Iconic-Font','Material-Design-Iconic-Font'" font-size="25" font-style="none" font-weight="400" transform="translate(33 31)"><tspan style="font-kerning:normal"></tspan></text></g></g></g></g></svg>