<svg xmlns="http://www.w3.org/2000/svg" viewBox="0 0 228 228" xmlns:v="https://vecta.io/nano" fill="#c5a47e"><path d="M103.353 145.618c0 5.522-4.477 10-10 10H42.667c-5.522 0-10-4.478-10-10 0-11.645 9.473-21.117 21.116-21.117h2.093c-5.115-3.748-8.457-9.78-8.457-16.594 0-11.348 9.232-20.58 20.58-20.58s20.58 9.232 20.58 20.58c0 6.813-3.34 12.846-8.457 16.594h2.092c11.35 0 20.637 9 21.1 20.24a9.8 9.8 0 0 1 .039.878zM228 44.732v138.535a7.5 7.5 0 0 1-7.5 7.5H7.5a7.5 7.5 0 0 1-7.5-7.5V44.732a7.5 7.5 0 0 1 7.5-7.5h213a7.5 7.5 0 0 1 7.5 7.5zM114.64 70.37a7.5 7.5 0 0 0-7.5-7.5H28.86a7.5 7.5 0 0 0-7.5 7.5v87.262a7.5 7.5 0 0 0 7.5 7.5h78.28a7.5 7.5 0 0 0 7.5-7.5V70.37zm90.1 75.63a7.5 7.5 0 0 0-7.5-7.5h-53.574a7.5 7.5 0 1 0 0 15h53.574a7.5 7.5 0 0 0 7.5-7.5zm0-32a7.5 7.5 0 0 0-7.5-7.5h-53.574a7.5 7.5 0 1 0 0 15h53.574a7.5 7.5 0 0 0 7.5-7.5zm0-32a7.5 7.5 0 0 0-7.5-7.5h-53.574a7.5 7.5 0 1 0 0 15h53.574a7.5 7.5 0 0 0 7.5-7.5z"/></svg>