<svg xmlns="http://www.w3.org/2000/svg" height="512" viewBox="0 0 24 24" width="512" xmlns:v="https://vecta.io/nano"><path d="M12.004 5.838a6.16 6.16 0 0 0-6.158 6.158 6.16 6.16 0 0 0 6.158 6.158 6.16 6.16 0 0 0 6.158-6.158 6.16 6.16 0 0 0-6.158-6.158zm0 10.155c-2.2 0-3.997-1.8-3.997-3.997S9.796 8 12.004 8 16 9.788 16 11.996s-1.788 3.997-3.997 3.997zM16.948.076C14.74-.027 9.27-.022 7.06.076c-1.942.1-3.655.56-5.036 1.94-2.307 2.31-2.012 5.42-2.012 9.98 0 4.668-.26 7.706 2.013 9.98 2.317 2.316 5.472 2.013 9.98 2.013 4.624 0 6.22.003 7.855-.63 2.223-.863 3.9-2.85 4.065-6.42a161.35 161.35 0 0 0 0-9.887c-.2-4.212-2.46-6.768-6.977-6.976zm3.495 20.372c-1.513 1.513-3.612 1.378-8.468 1.378-5 0-7.005.074-8.468-1.393-1.685-1.677-1.38-4.37-1.38-8.453 0-5.525-.567-9.504 4.978-9.788 1.274-.045 1.65-.06 4.856-.06l.045.03c5.33 0 9.5-.558 9.76 4.986.057 1.265.07 1.645.07 4.847-.001 4.942.093 6.96-1.394 8.453z"/><circle cx="18.406" cy="5.595" r="1.439"/></svg>