<svg xmlns="http://www.w3.org/2000/svg" viewBox="0 0 512.005 512.005" xmlns:v="https://vecta.io/nano" fill="#fff"><path d="M505.75 475.587l-145.6-145.6c28.203-34.837 45.184-79.104 45.184-127.317C405.333 90.926 314.4.003 202.666.003S0 90.925 0 202.67s90.923 202.667 202.667 202.667c48.213 0 92.48-16.98 127.317-45.184l145.6 145.6c4.16 4.16 9.62 6.25 15.083 6.25s10.923-2.09 15.083-6.25c8.34-8.34 8.34-21.824-.001-30.165zM202.667 362.67c-88.235 0-160-71.765-160-160s71.765-160 160-160 160 71.765 160 160-71.766 160-160 160z"/></svg>