<svg xmlns="http://www.w3.org/2000/svg" height="181.333" viewBox="-1 0 136 136.219" width="181.333" xmlns:v="https://vecta.io/nano"><path d="M93.148 80.832c16.352-23.1 10.883-55.062-12.207-71.4S25.88-1.46 9.53 21.633-1.352 76.69 21.742 93.04a51.23 51.23 0 0 0 55.652 2.301l37.77 37.543c4.078 4.293 10.863 4.465 15.156.387a10.72 10.72 0 0 0 .391-15.152 9.21 9.21 0 0 0-.391-.391zm-41.84 3.5c-18.246.004-33.04-14.777-33.05-33.023-.004-18.246 14.777-33.04 33.027-33.047 18.223-.008 33.008 14.75 33.043 32.973.03 18.25-14.742 33.066-32.996 33.098h-.023zm0 0" fill="rgb(0%,0%,0%)"/></svg>