<svg xmlns="http://www.w3.org/2000/svg" viewBox="0 0 512 512" fill="#c5a47e" xmlns:v="https://vecta.io/nano"><path d="M256 101.08c-48.245 0-87.5 39.256-87.5 87.5s39.256 87.5 87.5 87.5 87.5-39.256 87.5-87.5-39.256-87.5-87.5-87.5zm-19.658 298.76l-.47-.43-37.386-33.827-28.528 3.07-34.926 3.75-41.976 89.2 65.004.86L200.135 512l47.836-101.64zm140.626-27.436l-63.454-6.82-49.485 44.776L311.865 512l42.075-49.535 65.004-.86zm32.277-183.822l26.107-58.274L379.978 98.5l-13.13-62.494-63.494 6.82L256 0l-47.355 42.836-63.494-6.82-13.13 62.493-55.375 31.797 26.107 58.274-26.107 58.274 55.375 31.797 13.13 62.494 63.494-6.82L256 377.162l47.355-42.835 63.494 6.82 13.13-62.494 55.375-31.797-26.1-58.274zM256 306.08c-64.784 0-117.5-52.705-117.5-117.5 0-64.784 52.715-117.5 117.5-117.5s117.5 52.715 117.5 117.5c0 64.794-52.715 117.5-117.5 117.5z"/></svg>