<svg viewBox="0 0 47.809 47.809"><path d="M16.145 29.526c.001-.097-.028-.127-.123-.123h-.365c-.1-.007-.127.026-.127.127l.002 2.143c-.023-.016-.032-.03-.04-.05l-1.007-2.12c-.034-.074-.074-.102-.154-.1l-.57.002h-.247V32.4h.444c.165 0 .165-.001.165-.16v-2.254l.05.1 1.04 2.235c.03.068.066.1.137.1h.688c.076 0 .106-.022.105-.104l-.001-.764.002-1.998zm-6.8-.12c-.255.004-.5.01-.763-.002-.127-.007-.172.045-.206.154l-.615 1.975-.022-.05-.57-1.977c-.022-.077-.053-.105-.134-.103l-.45.002h-.483v2.984l.468.002c.1.005.135-.027.134-.132l-.001-2.293.342 1.04.4 1.3c.022.07.057.1.13.096l.365-.006c.03-.001.08-.035.1-.063l.763-2.397.02 2.465h.542c.077.003.1-.026.1-.1v-2.783c.001-.078-.026-.104-.106-.102zm3.41.75c-.126-.325-.34-.57-.674-.698a1.73 1.73 0 0 0-.969-.075 1.19 1.19 0 0 0-.84.59c-.154.268-.222.557-.25.864l.083.635a1.16 1.16 0 0 0 .676.849c.34.154.696.185 1.058.103.386-.1.7-.296.86-.664a1.99 1.99 0 0 0 .058-1.604zm-.55.718c.001.23-.014.46-.1.672-.14.314-.336.44-.657.434s-.527-.17-.626-.464a1.87 1.87 0 0 1 .005-1.24c.108-.308.35-.46.67-.455.3.004.528.168.626.467.06.188.082.4.12.584-.01 0-.02.002-.028.002zM5.372 15.47l-.403 2.992-.034-.002-.13-.922-.292-1.96c-.013-.093-.042-.115-.13-.115l-1.72.002c-.038 0-.076.004-.115.006l-.442 2.993h-.032l-.404-2.996H0c.003.04.001.07.007.097l.576 2.648L1 20.12c.02.1.05.127.152.126l1.92-.003.442-3.08h.035l.442 3.08H5.8c.22 0 .22 0 .268-.218l.5-2.292.388-1.798.094-.464H5.372zm4.616 3.535v-.55h1.67V17.22H9.986v-.525h1.8l.006-.108.002-1c.001-.097-.034-.118-.126-.118l-3.364.002c-.14 0-.14 0-.14.14l.001 4.48c0 .05.004.1.008.15h3.67v-1.23H9.988zm28.344-3.535v2.872l-.027.004-.04-.095-.938-2.7c-.026-.07-.057-.1-.137-.1h-2.03c-.1 0-.127.03-.125.126l.002 4.534c0 .037.003.076.008.12l.104.005 1.3.002c.095.001.12-.02.12-.12l-.002-2.686c0-.033.006-.065.008-.097a1.15 1.15 0 0 1 .11.238l.883 2.55c.03.088.074.1.164.1l2.04-.002c.025 0 .055-.004.082-.006V15.47h-1.5zm-10.687 3.538l-1.653.001c-.04 0-.076-.004-.115-.006v-.545h1.666v-1.236H25.88v-.525h1.812v-1.23h-3.607v4.768l.05.006 3.53.002c.072 0 .094-.022.092-.093l.002-1.03c.002-.092-.03-.112-.115-.112zm5.893.137l-.097-.667a.74.74 0 0 0-.598-.615l-.205-.052.1-.036c.254-.08.482-.198.643-.424.178-.256.2-.55.174-.844a.97.97 0 0 0-.668-.899c-.32-.12-.655-.14-1-.143l-2.768-.002v4.773h1.832v-1.7l.446.04c.12.02.2.1.226.22l.067.38.168.98a.1.1 0 0 0 .12.1l1.644-.002c.03 0 .062-.004.076-.005l-.18-1.093zM31.53 17.4c-.174.086-.36.08-.56.067l.002-.912c.2-.007.4-.02.6.06.164.07.2.2.2.376-.002.184-.072.326-.242.4zm13.92-1.9v10.382h.574V15.5h-.574zm-26.866-.03v1.276h1.18v3.492h1.88V16.74h1.17v-1.27h-4.23zM16.6 17.427c-.318-.117-.65-.197-.974-.294l-.624-.2c-.108-.038-.16-.133-.154-.248s.073-.2.186-.236c.127-.03.262-.045.4-.033a.29.29 0 0 1 .276.27c.01.1.057.1.14.1l1.44-.001c.035 0 .07-.004.1-.006.008-.016.012-.022.013-.028s.002-.02.002-.032a1.22 1.22 0 0 0-.649-1.11c-.298-.167-.625-.24-.963-.266-.535-.043-1.066-.037-1.582.135-.584.196-1 .556-1.062 1.2s.14 1.145.77 1.386c.352.135.72.225 1.083.336l.572.18c.162.06.242.193.22.33-.03.196-.185.337-.388.354-.284.023-.45-.063-.517-.275-.024-.073-.036-.15-.055-.232h-1.78l-.007.062.002.075c.053.635.393 1.048.986 1.266.37.137.756.18 1.148.184.44.006.873-.03 1.3-.177.55-.194.94-.54 1.052-1.137.146-.787-.166-1.35-.916-1.624zM27.2 21.2l-.924.004h-.84l-.006.106v4.564c0 .082.02.1.1.1l1.62-.002c.146 0 .146 0 .146-.146v-4.533c.001-.08-.024-.105-.104-.104zm-8.395 10.674l-1.15.002c-.04 0-.083-.004-.136-.006l-.001-.664c-.002-.084.025-.1.1-.1l1 .002c.048 0 .098-.006.152-.008v-.5h-.142c-.333-.001-.667.001-1-.002-.036-.001-.102-.034-.102-.054l-.005-.637h1.34v-.36c.01-.1-.027-.14-.136-.14h-1.73c-.102-.002-.133.025-.132.13l.001 2.85h2.04l.002-.403c.004-.08-.02-.104-.1-.104zM15.6 21.212v.26l-.003 2.794a1.09 1.09 0 0 1-.05.335.32.32 0 0 1-.305.231c-.157.007-.284-.057-.342-.207a.86.86 0 0 1-.064-.311l-.004-3.107H12.97l-.006.054.007 3.255a1.63 1.63 0 0 0 .123.562c.186.48.573.742 1.046.877.684.2 1.376.193 2.068.033.822-.2 1.283-.765 1.283-1.6l.001-3.176H15.6zm22.147 9.734c-.136-.105-.306-.168-.476-.225-.2-.074-.434-.117-.65-.18-.275-.08-.373-.34-.215-.547s.565-.244.74-.05c.076.084.113.205.175.32h.582c.04-.372-.203-.717-.582-.838a1.77 1.77 0 0 0-.9-.023c-.18.04-.34.118-.484.24-.324.28-.45 1 .145 1.307a2.74 2.74 0 0 0 .387.155l.618.18a.32.32 0 0 1 .095.574c-.065.05-.155.088-.24.105-.343.068-.707-.022-.705-.48 0-.022-.052-.06-.078-.06l-.365-.003c-.22 0-.225 0-.204.22.032.34.198.587.52.712.346.136.705.136 1.064.054.265-.06.493-.183.66-.408.25-.338.222-.822-.088-1.053zm3.2-15.446v10.382h.578V15.5h-.578zm-.433 13.918l-.094-.008c-.575 0-1.147 0-1.72-.002-.094 0-.106.045-.106.125l.002 2.717c0 .027-.008.055.002.076s.037.06.057.06l.596.003v-1.26h1.2v-.37c0-.142 0-.142-.143-.142-.314 0-.63.002-.943-.002-.04 0-.102-.033-.104-.054l-.005-.66h1.27v-.48zm2.45 2.458c-.383 0-.767-.003-1.147.001-.087.001-.1-.03-.108-.1l.002-.504c0-.166 0-.165.16-.165h.935l.162-.008v-.357c0-.14 0-.14-.144-.14-.332-.001-.666.001-.998-.003-.037 0-.106-.03-.106-.05l-.004-.64h1.338l.002-.367c.008-.106-.03-.133-.133-.13l-1.73.002-.127.006v2.972H43.1v-.505h-.125zm4.21-16.442a.63.63 0 0 0-.621.625c.002.34.293.62.64.618.338-.003.607-.28.605-.622 0-.358-.27-.625-.625-.62zm.005 1.18c-.3.002-.543-.25-.543-.564s.246-.557.55-.554.53.243.527.567a.53.53 0 0 1-.535.551zM45.913 31.74l-.06-.385a.48.48 0 0 0-.445-.445l.115-.05c.356-.154.457-.412.453-.688a.71.71 0 0 0-.53-.7 1.99 1.99 0 0 0-.488-.063l-1.148-.002c-.04 0-.082.004-.13.008v2.97h.652v-1.188h.56c.226 0 .3.065.332.3l.125.825c.004.03.033.076.05.077l.632.003-.12-.65zm-.95-1.05c-.188.014-.38.008-.567.012-.062.002-.08-.032-.08-.088v-.643c0-.06.02-.082.082-.08l.55.014c.217.008.338.14.346.365s-.13.404-.33.42z"/><path d="M22.337 21.207v2.87c-.01.001-.02.003-.03.005l-.03-.073-.948-2.7c-.027-.08-.064-.1-.144-.1a196.43 196.43 0 0 1-2.031-.001c-.098-.001-.125.024-.125.125v4.534l.006.116h1.518l-.001-2.893.03-.004.053.133.928 2.67c.027.08.063.103.144.103L23.75 26c.03 0 .063-.005.1-.007v-4.768h-1.5zm25.16-5.36c-.02-.052-.084-.117-.134-.125-.125-.018-.256-.005-.38-.005v.68l.04.001v-.307c.125-.04.203-.02.25.087.03.06.066.12.106.172.02.024.054.037.08.055l.02-.022-.188-.298c.047-.013.084-.02.115-.034.088-.04.123-.122.092-.203zm-.272.172c-.186 0-.238-.076-.188-.224.004-.013.015-.034.02-.033l.332.035c.02.004.04.084.03.12s-.054.075-.1.1-.092.01-.105.01zm-21.87 13.385c-.588 0-1.176.001-1.763-.001-.092 0-.13.023-.123.12a2.34 2.34 0 0 1 .001.29c-.005.08.024.106.104.104l.655-.003c.093-.004.122.023.122.12l-.002 2.172c0 .04-.005.08.004.117.006.026.035.062.055.062l.598.003v-2.25c.003-.247-.043-.22.224-.22l.647-.002v-.512h-.522zm-4.002.017c-.068-.003-.1.022-.127.084l-.333.72-.246.53-.034-.075-.536-1.182c-.015-.03-.056-.07-.086-.07l-.697-.003.048.104.9 1.664a.49.49 0 0 1 .054.213v.88c-.001.078.02.106.103.104h.43a.09.09 0 0 0 .117-.114v-.893c0-.048.01-.107.035-.15l.96-1.8c-.208 0-.392.003-.577-.001zm16.975-8.2v2.868c-.035-.024-.05-.052-.06-.08l-.943-2.7c-.023-.066-.05-.096-.127-.096l-2.062.001c-.083-.001-.104.028-.104.106v4.565c0 .092.033.1.12.1h1.28c.097 0 .127-.026.126-.126l-.002-2.777c.04.03.056.065.07.1l.938 2.704c.027.076.058.1.136.1l2.147-.002v-4.77h-1.518zM28.63 32.155l-.1-.665c-.04-.28-.113-.533-.477-.58l.13-.053c.287-.125.455-.373.442-.674-.012-.318-.15-.572-.46-.688-.166-.062-.354-.082-.534-.088l-1.2-.006c-.096 0-.12.028-.12.123l.002 2.74.008.115h.658v-1.186l.666.004c.096.004.172.07.195.172.02.08.033.16.045.242l.108.768h.697c-.024-.082-.058-.15-.07-.223zm-.994-1.468c-.2.02-.406.013-.6.01-.02 0-.057-.043-.057-.065l-.003-.722.722.006c.174.018.264.18.26.4-.007.195-.128.362-.3.38zm5.837-8.124a2 2 0 0 0-1.082-1.24c-.365-.173-.754-.237-1.154-.244-.54-.01-1.06.072-1.52.368-.646.4-.918 1.035-.996 1.765-.045.413-.02.823.084 1.224.138.53.414.97.88 1.275.45.294.955.386 1.483.4l.627-.07c.78-.147 1.354-.57 1.64-1.324.268-.708.27-1.435.037-2.156zM31.585 24.5c-.057.27-.226.38-.467.358-.14-.01-.26-.067-.306-.2-.063-.186-.133-.376-.143-.566l.024-1.187c.006-.118.05-.238.1-.35a.37.37 0 0 1 .361-.255c.182-.007.317.065.396.234.106.23.12.476.14.722.008.107 0 .215 0 .323l.034.003-.13.92zm3.335 4.904c-.13.002-.263.006-.396-.002-.094-.005-.123.02-.123.118l.002 2.074a1 1 0 0 1-.006.094l-.04-.075-1-2.1a.14.14 0 0 0-.152-.1h-.697c-.102-.002-.125.03-.125.13l.002 2.86h.47c.144-.001.144-.001.144-.14V30.01c.105.182.2.365.277.55l.816 1.75a.16.16 0 0 0 .116.081l.72.005c.063 0 .1-.022.1-.088v-2.805c0-.068-.024-.095-.098-.094zM31.825 32.3l-.315-.908-.65-1.885a.12.12 0 0 0-.14-.096c-.177.006-.353.008-.527-.002-.107-.007-.148.04-.182.133l-1.025 2.853.526.002c.075.002.107-.027.13-.096l.148-.447c.023-.07.06-.1.14-.1l.764.002c.3 0 .298 0 .394.3.037.115.056.267.136.328s.23.02.346.02l.28.001-.025-.096zm-1.82-1.048l.423-1.22.395 1.22h-.818z"/></svg>