<svg xmlns="http://www.w3.org/2000/svg" viewBox="0 0 512 512" xmlns:v="https://vecta.io/nano"><path d="M409.713 38.624C385.842 11.584 342.642 0 287.377 0H126.993c-11.296 0-20.896 8.16-22.688 19.2L37.522 439.392c-1.312 8.288 5.152 15.776 13.6 15.776h99.008l24.096-151.552c1.76-11.04 11.328-19.2 22.624-19.2h47.04c92.448 0 164.8-37.248 185.952-144.992.64-3.2 1.632-9.344 1.632-9.344 6.015-39.872-.033-66.912-21.76-91.456zm46.817 111.872c-22.976 106.08-96.288 162.208-212.64 162.208h-42.176L170.225 512h68.416c9.888 0 18.304-7.136 19.84-16.832l.8-4.224 15.744-98.912 1.024-5.44c1.536-9.696 9.952-16.832 19.808-16.832h12.512c80.864 0 144.16-32.576 162.656-126.816 7.424-37.824 3.84-69.536-14.496-92.448z"/></svg>