<svg xmlns="http://www.w3.org/2000/svg" viewBox="0 0 512.883 512.883" xmlns:v="https://vecta.io/nano"><path d="M256.44 0C115.2 0 .44 114.76.44 256c0 105.048 62.676 195.1 153.6 234.814-.883-17.655 0-39.724 4.414-59.145l32.662-139.476s-7.945-16.772-7.945-40.607c0-37.96 22.07-66.207 49.434-66.207 22.952 0 34.428 17.655 34.428 38.84 0 22.952-15.007 58.262-22.952 90.924-6.18 27.366 13.24 49.434 40.607 49.434 48.552 0 81.214-62.676 81.214-135.945 0-56.497-37.96-97.986-106.814-97.986-77.683 0-126.234 58.262-126.234 122.703 0 22.07 6.18 37.96 16.772 50.317 4.414 5.297 5.297 7.945 3.53 14.124-.883 4.414-4.414 15.9-5.297 20.303-1.766 6.18-7.062 8.828-13.24 6.18-36.193-15.007-52.083-53.848-52.083-97.986 0-72.386 60.9-159.78 182.73-159.78 97.986 0 162.428 70.62 162.428 146.538 0 100.634-55.614 175.67-137.7 175.67-27.366 0-53.848-15.007-62.676-31.78l-17.655 70.62c-5.297 19.42-15.9 39.724-25.6 54.73 22.952 7.062 47.67 10.593 72.386 10.593 141.24 0 256-114.76 256-256S397.683 0 256.44 0" fill="#cb1f24"/></svg>