<svg xmlns="http://www.w3.org/2000/svg" viewBox="0 0 1000 1000" xmlns:v="https://vecta.io/nano"><path d="M758.4 606.6c0-21.3-4.1-40.7-12.4-58.4-8.3-17.6-18.6-32.2-30.9-43.7-12.4-11.5-27.9-21.9-46.5-31.3-18.7-9.4-36.2-16.6-52.7-21.7-16.4-5.1-35.1-10-55.9-14.7l-66.4-15.3-28.1-6.7c-6-1.5-13.4-3.9-22.3-7.3s-15.2-6.8-19.1-10.2-7.4-7.8-10.5-13.4c-3.2-5.6-4.8-11.9-4.8-19.1 0-32.8 30.6-49.2 91.9-49.2 18.3 0 34.7 2.6 49.2 7.7s26 11.2 34.5 18.2 16.6 14.2 24.3 21.4 16.2 13.4 25.5 18.5 19.5 7.7 30.6 7.7c20 0 36-6.8 48.2-20.4 12.1-13.6 18.2-30 18.2-49.2 0-23.4-11.9-44.6-35.8-63.4s-54-33.2-90.6-43c-36.5-9.8-75.2-14.7-116.1-14.7-28.9 0-57 3.3-84.2 9.9s-52.6 16.6-76.3 30c-23.6 13.4-42.5 31.9-56.8 55.5-14.2 23.6-21.3 51-21.4 82 0 26 4 48.6 12.1 67.9s20 35.4 35.8 48.2 32.8 23.1 51 31c18.2 7.8 40.1 14.8 65.7 20.7l93.2 22.9c38.3 9.4 62.1 17 71.5 22.9 13.6 8.5 20.4 21.3 20.4 38.3 0 16.6-8.5 30.3-25.5 41.2s-39.3 16.3-67 16.3c-21.7 0-41.1-3.4-58.4-10.2s-31.1-15-41.5-24.6-20.1-19.2-29-28.7c-8.9-9.6-18.7-17.8-29.3-24.6s-22.1-10.2-34.5-10.2c-21.3 0-37.3 6.4-48.2 19.1-10.8 12.7-16.3 28.7-16.3 47.9 0 39.1 25.9 72.6 77.8 100.4s113.8 41.8 185.6 41.8c31 0 60.8-3.9 89.3-11.8s54.6-19.3 78.1-34.1c23.6-14.9 42.4-34.7 56.4-59.6 14.3-25 21.3-53 21.2-84h0zM990 745c0 67.6-23.9 125.3-71.8 173.2C870.4 966.1 812.6 990 745 990c-55.3 0-105.1-17-149.3-51-32.8 6.8-64.7 10.2-95.7 10.2-60.8 0-119-11.8-174.5-35.4C270 890.1 222.2 858.2 182 818s-72.1-88-95.7-143.6C62.6 618.9 50.8 560.8 50.8 500c0-31 3.4-62.9 10.2-95.7C27 360 10 310.2 10 255c0-67.6 23.9-125.3 71.8-173.2C129.6 33.9 187.4 10 255 10c55.3 0 105.1 17 149.3 51 32.8-6.8 64.7-10.2 95.7-10.2 60.8 0 119 11.8 174.5 35.4C730 109.9 777.8 141.8 818 182s72.1 88 95.7 143.6c23.6 55.5 35.4 113.7 35.4 174.5 0 31-3.4 62.9-10.2 95.7C973 640 990 689.8 990 745h0z"/></svg>