<svg xmlns="http://www.w3.org/2000/svg" viewBox="0 0 191.667 191.667" xmlns:v="https://vecta.io/nano" width="15px" height="15px" fill="#c5a47e"><path d="M95.833 0C42.99 0 0 43 0 95.833s42.99 95.834 95.833 95.834 95.833-42.99 95.833-95.834S148.676 0 95.833 0zm55.03 79.646l-60.207 60.207a13.46 13.46 0 0 1-19.166 0l-30.685-30.685a13.46 13.46 0 0 1-3.97-9.583c0-3.62 1.4-7.024 3.97-9.584a13.46 13.46 0 0 1 9.583-3.97c3.62 0 7.024 1.4 9.583 3.97l21.1 21.1 50.623-50.623a13.46 13.46 0 0 1 19.166 0 13.57 13.57 0 0 1 .002 19.167z"/></svg>